<svg xmlns="http://www.w3.org/2000/svg" viewBox="0 0 283.5 247"><defs><style>.cls-1{fill:#51a851;}.cls-2{fill:#f2d753;}</style></defs><title>logo</title><g id="Livello_2" data-name="Livello 2"><g id="Livello_1-2" data-name="Livello 1"><circle class="cls-1" cx="160" cy="123.5" r="123.5"/><path class="cls-2" d="M145,207.61a12,12,0,0,1-8.49-3.51L57.41,125a2,2,0,0,0-2.82,0L8.54,171.05A5,5,0,0,1,1.46,164l46.05-46a12,12,0,0,1,17,0l79.1,79.1a2,2,0,0,0,2.82,0L238,105.48a5,5,0,1,1,7.08,7.07L153.49,204.1A12,12,0,0,1,145,207.61Z"/><path class="cls-2" d="M182.81,243.52a29.81,29.81,0,1,1,29.8-29.81A29.84,29.84,0,0,1,182.81,243.52Zm0-49.61a19.81,19.81,0,1,0,19.8,19.8A19.82,19.82,0,0,0,182.81,193.91Z"/><path class="cls-2" d="M249.69,176.63a29.81,29.81,0,1,1,29.81-29.81A29.84,29.84,0,0,1,249.69,176.63Zm0-49.61a19.81,19.81,0,1,0,19.81,19.8A19.82,19.82,0,0,0,249.69,127Z"/><path class="cls-2" d="M134.51,197.13a12,12,0,0,1-8.49-3.51l-54.57-54.5a12,12,0,0,1,0-17L179.53,14.05a5,5,0,0,1,8,1.26l35.76,69.76a12,12,0,0,1-1.43,13.11h0l-78.09,94.59a12,12,0,0,1-8.68,4.34ZM181.75,26,78.51,129.21a2,2,0,0,0-.58,1.42,2,2,0,0,0,.59,1.41l54.57,54.5a2,2,0,0,0,2.95-.14l78.1-94.58a2,2,0,0,0,.24-2.19ZM218,95h0Z"/><path class="cls-2" d="M141.13,155.8a10.37,10.37,0,0,1-7.4-3.07l-26.4-26.39a10.47,10.47,0,1,1,14.81-14.81l26.39,26.4a10.45,10.45,0,0,1,0,14.8h0A10.4,10.4,0,0,1,141.13,155.8Zm-26.4-39.34a2.42,2.42,0,0,0-1.74.73,2.46,2.46,0,0,0,0,3.49l26.39,26.4a2.54,2.54,0,0,0,3.5,0h0a2.49,2.49,0,0,0,0-3.5l-26.4-26.39A2.46,2.46,0,0,0,114.73,116.46Z"/><path class="cls-2" d="M164.24,132.69a10.4,10.4,0,0,1-7.4-3.07l-26.4-26.39a10.47,10.47,0,0,1,14.81-14.81l26.39,26.4a10.47,10.47,0,0,1-7.4,17.87Zm-26.4-39.34a2.46,2.46,0,0,0-1.74.73,2.42,2.42,0,0,0-.73,1.74,2.46,2.46,0,0,0,.73,1.75L162.49,124a2.47,2.47,0,0,0,3.5-3.5l-26.4-26.39A2.47,2.47,0,0,0,137.84,93.35Z"/><path class="cls-2" d="M187.81,109.12a10.4,10.4,0,0,1-7.4-3.07L154,79.66a10.47,10.47,0,0,1,14.81-14.81l26.4,26.39a10.49,10.49,0,0,1,0,14.81h0A10.41,10.41,0,0,1,187.81,109.12ZM161.42,69.78A2.47,2.47,0,0,0,159.67,74l26.4,26.39a2.51,2.51,0,0,0,3.49,0h0a2.41,2.41,0,0,0,.72-1.74,2.45,2.45,0,0,0-.72-1.75L163.17,70.5A2.49,2.49,0,0,0,161.42,69.78Z"/></g></g></svg>